<?xml version="1.0" encoding="utf-8"?>
<!-- Generated by IcoMoon.io -->
<!DOCTYPE svg PUBLIC "-//W3C//DTD SVG 1.1//EN" "http://www.w3.org/Graphics/SVG/1.1/DTD/svg11.dtd">
<svg version="1.1" xmlns="http://www.w3.org/2000/svg" xmlns:xlink="http://www.w3.org/1999/xlink" width="55" height="64" viewBox="0 0 55 64">
<path d="M0.441 23.882h0.902v0.902h-0.902v-0.902z"></path>
<path d="M50.952 24.784h-1.804v-0.902h1.804v0.902zM46.442 24.784h-1.804v-0.902h1.804v0.902zM41.932 24.784h-1.804v-0.902h1.804v0.902zM37.422 24.784h-1.804v-0.902h1.804v0.902zM32.912 24.784h-1.804v-0.902h1.804v0.902zM28.402 24.784h-1.804v-0.902h1.804v0.902zM23.892 24.784h-1.804v-0.902h1.804v0.902zM19.382 24.784h-1.804v-0.902h1.804v0.902zM14.873 24.784h-1.804v-0.902h1.804v0.902zM10.363 24.784h-1.804v-0.902h1.804v0.902zM5.853 24.784h-1.804v-0.902h1.804v0.902z"></path>
<path d="M53.658 23.882h0.902v0.902h-0.902v-0.902z"></path>
<path d="M53.658 41.922h0.902v0.902h-0.902v-0.902z"></path>
<path d="M50.952 42.824h-1.804v-0.902h1.804v0.902zM46.442 42.824h-1.804v-0.902h1.804v0.902zM41.932 42.824h-1.804v-0.902h1.804v0.902zM37.422 42.824h-1.804v-0.902h1.804v0.902zM32.912 42.824h-1.804v-0.902h1.804v0.902zM28.402 42.824h-1.804v-0.902h1.804v0.902zM23.892 42.824h-1.804v-0.902h1.804v0.902zM19.382 42.824h-1.804v-0.902h1.804v0.902zM14.873 42.824h-1.804v-0.902h1.804v0.902zM10.363 42.824h-1.804v-0.902h1.804v0.902zM5.853 42.824h-1.804v-0.902h1.804v0.902z"></path>
<path d="M0.441 41.922h0.902v0.902h-0.902v-0.902z"></path>
<path d="M16.677 4.941h0.902v0.902h-0.902v-0.902z"></path>
<path d="M17.578 55.452h-0.902v-1.804h0.902v1.804zM17.578 50.942h-0.902v-1.804h0.902v1.804zM17.578 46.432h-0.902v-1.804h0.902v1.804zM17.578 41.922h-0.902v-1.804h0.902v1.804zM17.578 37.412h-0.902v-1.804h0.902v1.804zM17.578 32.902h-0.902v-1.804h0.902v1.804zM17.578 28.392h-0.902v-1.804h0.902v1.804zM17.578 23.882h-0.902v-1.804h0.902v1.804zM17.578 19.372h-0.902v-1.804h0.902v1.804zM17.578 14.862h-0.902v-1.804h0.902v1.804zM17.578 10.352h-0.902v-1.804h0.902v1.804z"></path>
<path d="M16.677 58.157h0.902v0.902h-0.902v-0.902z"></path>
<path d="M34.716 4.941h0.902v0.902h-0.902v-0.902z"></path>
<path d="M35.618 55.452h-0.902v-1.804h0.902v1.804zM35.618 50.942h-0.902v-1.804h0.902v1.804zM35.618 46.432h-0.902v-1.804h0.902v1.804zM35.618 41.922h-0.902v-1.804h0.902v1.804zM35.618 37.412h-0.902v-1.804h0.902v1.804zM35.618 32.902h-0.902v-1.804h0.902v1.804zM35.618 28.392h-0.902v-1.804h0.902v1.804zM35.618 23.882h-0.902v-1.804h0.902v1.804zM35.618 19.372h-0.902v-1.804h0.902v1.804zM35.618 14.862h-0.902v-1.804h0.902v1.804zM35.618 10.352h-0.902v-1.804h0.902v1.804z"></path>
<path d="M34.716 58.157h0.902v0.902h-0.902v-0.902z"></path>
<path d="M55.011 59.51h-55.021v-55.021h55.021v55.021zM0.892 58.608h53.217v-53.217h-53.217v53.217z"></path>
<path d="M18.931 43.726h-0.902v-2.255h-2.255v-0.902h3.157z"></path>
<path d="M14.331 41.471h-4.239v-0.902h4.239v0.902zM8.739 41.471h-4.239v-0.902h4.239v0.902z"></path>
<path d="M0.892 43.726h-0.902v-3.157h3.157v0.902h-2.255z"></path>
<path d="M0.892 55.001h-0.902v-4.239h0.902v4.239zM0.892 49.408h-0.902v-4.239h0.902v4.239z"></path>
<path d="M3.147 59.51h-3.157v-3.157h0.902v2.255h2.255z"></path>
<path d="M14.421 59.51h-4.239v-0.902h4.239v0.902zM8.829 59.51h-4.239v-0.902h4.239v0.902z"></path>
<path d="M18.931 59.51h-3.157v-0.902h2.255v-2.255h0.902z"></path>
<path d="M18.931 54.91h-0.902v-4.239h0.902v4.239zM18.931 49.318h-0.902v-4.239h0.902v4.239z"></path>
</svg>
