<?xml version="1.0" encoding="utf-8"?>
<!-- Generated by IcoMoon.io -->
<!DOCTYPE svg PUBLIC "-//W3C//DTD SVG 1.1//EN" "http://www.w3.org/Graphics/SVG/1.1/DTD/svg11.dtd">
<svg version="1.1" xmlns="http://www.w3.org/2000/svg" xmlns:xlink="http://www.w3.org/1999/xlink" width="55" height="64" viewBox="0 0 55 64">
<path d="M3.326 23.247h0.834v1.667h-0.834v-1.667z"></path>
<path d="M50.011 24.914h-1.667v-1.667h1.667v1.667zM45.843 24.914h-1.667v-1.667h1.667v1.667zM41.674 24.914h-1.667v-1.667h1.667v1.667zM37.506 24.914h-1.667v-1.667h1.667v1.667zM33.338 24.914h-1.667v-1.667h1.667v1.667zM29.169 24.914h-1.667v-1.667h1.667v1.667zM25.001 24.914h-1.667v-1.667h1.667v1.667zM20.833 24.914h-1.667v-1.667h1.667v1.667zM16.665 24.914h-1.667v-1.667h1.667v1.667zM12.496 24.914h-1.667v-1.667h1.667v1.667zM8.328 24.914h-1.667v-1.667h1.667v1.667z"></path>
<path d="M52.512 23.247h0.834v1.667h-0.834v-1.667z"></path>
<path d="M52.512 39.92h0.834v1.667h-0.834v-1.667z"></path>
<path d="M50.011 41.587h-1.667v-1.667h1.667v1.667zM45.843 41.587h-1.667v-1.667h1.667v1.667zM41.674 41.587h-1.667v-1.667h1.667v1.667zM37.506 41.587h-1.667v-1.667h1.667v1.667zM33.338 41.587h-1.667v-1.667h1.667v1.667zM29.169 41.587h-1.667v-1.667h1.667v1.667zM25.001 41.587h-1.667v-1.667h1.667v1.667zM20.833 41.587h-1.667v-1.667h1.667v1.667zM16.665 41.587h-1.667v-1.667h1.667v1.667zM12.496 41.587h-1.667v-1.667h1.667v1.667zM8.328 41.587h-1.667v-1.667h1.667v1.667z"></path>
<path d="M3.326 39.92h0.834v1.667h-0.834v-1.667z"></path>
<path d="M17.915 6.157h1.667v0.834h-1.667v-0.834z"></path>
<path d="M19.583 52.841h-1.667v-1.667h1.667v1.667zM19.583 48.673h-1.667v-1.667h1.667v1.667zM19.583 44.505h-1.667v-1.667h1.667v1.667zM19.583 40.337h-1.667v-1.667h1.667v1.667zM19.583 36.168h-1.667v-1.667h1.667v1.667zM19.583 32h-1.667v-1.667h1.667v1.667zM19.583 27.832h-1.667v-1.667h1.667v1.667zM19.583 23.663h-1.667v-1.667h1.667v1.667zM19.583 19.495h-1.667v-1.667h1.667v1.667zM19.583 15.327h-1.667v-1.667h1.667v1.667zM19.583 11.159h-1.667v-1.667h1.667v1.667z"></path>
<path d="M17.915 55.342h1.667v0.834h-1.667v-0.834z"></path>
<path d="M34.588 6.157h1.667v0.834h-1.667v-0.834z"></path>
<path d="M36.256 52.841h-1.667v-1.667h1.667v1.667zM36.256 48.673h-1.667v-1.667h1.667v1.667zM36.256 44.505h-1.667v-1.667h1.667v1.667zM36.256 40.337h-1.667v-1.667h1.667v1.667zM36.256 36.168h-1.667v-1.667h1.667v1.667zM36.256 32h-1.667v-1.667h1.667v1.667zM36.256 27.832h-1.667v-1.667h1.667v1.667zM36.256 23.663h-1.667v-1.667h1.667v1.667zM36.256 19.495h-1.667v-1.667h1.667v1.667zM36.256 15.327h-1.667v-1.667h1.667v1.667zM36.256 11.159h-1.667v-1.667h1.667v1.667z"></path>
<path d="M34.588 55.342h1.667v0.834h-1.667v-0.834z"></path>
<path d="M55.013 59.51h-55.021v-55.021h55.021v55.021zM4.994 54.509h45.017v-45.017h-45.017v45.017z"></path>
<path d="M19.583 42.837h-0.834v-2.084h-2.084v-0.834h2.918z"></path>
<path d="M15.331 40.753h-3.918v-0.834h3.918v0.834zM10.162 40.753h-3.918v-0.834h3.918v0.834z"></path>
<path d="M2.91 42.837h-0.834v-2.918h2.918v0.834h-2.084z"></path>
<path d="M2.91 53.258h-0.834v-3.918h0.834v3.918zM2.91 48.089h-0.834v-3.918h0.834v3.918z"></path>
<path d="M4.994 57.426h-2.918v-2.918h0.834v2.084h2.084z"></path>
<path d="M15.414 57.426h-3.918v-0.834h3.918v0.834zM10.246 57.426h-3.918v-0.834h3.918v0.834z"></path>
<path d="M19.583 57.426h-2.918v-0.834h2.084v-2.084h0.834z"></path>
<path d="M19.583 53.175h-0.834v-3.918h0.834v3.918zM19.583 48.006h-0.834v-3.918h0.834v3.918z"></path>
</svg>
